<?xml version="1.0" standalone="no"?><!DOCTYPE svg PUBLIC "-//W3C//DTD SVG 1.1//EN" "http://www.w3.org/Graphics/SVG/1.1/DTD/svg11.dtd"><svg xmlns:xlink="http://www.w3.org/1999/xlink" version="1.1" class="highcharts-root" style="font-family:proximanova, 'helvetica neue', helvetica, arial, sans-serif;font-size:12px;" xmlns="http://www.w3.org/2000/svg" width="800" height="400" viewBox="0 0 800 400"><desc>Created with Highstock 5.0.14</desc><defs><clipPath id="highcharts-qgs033g-43"><rect x="0" y="0" width="728" height="321" fill="none"></rect></clipPath><clipPath id="highcharts-qgs033g-44"><rect x="0" y="0" width="728" height="321" fill="none"></rect></clipPath></defs><rect fill="#fff" class="highcharts-background" x="0" y="0" width="800" height="400" rx="0" ry="0"></rect><rect fill="none" class="highcharts-plot-background" x="62" y="45" width="728" height="321"></rect><g class="highcharts-range-selector-buttons" transform="translate(0,10)"><text x="62" y="15" style="color:#8a8a8a;font-size:13px;font-family:arial;margin-top:-10px;fill:#8a8a8a;"></text><g class="highcharts-button highcharts-button-normal" style="cursor:pointer;" states="[object Object]" transform="translate(67,0)"><rect fill="#e6e6e6" class=" highcharts-button-box" x="0" y="0" width="34" height="22" rx="0" ry="0"></rect><text x="11.65625" style="font-size:12px;font-weight:normal;color:#555;fill:#555;" y="14">1h</text></g><g class="highcharts-button highcharts-button-normal" style="cursor:pointer;" states="[object Object]" transform="translate(103,0)"><rect fill="#e6e6e6" class=" highcharts-button-box" x="0" y="0" width="34" height="22" rx="0" ry="0"></rect><text x="8.1328125" style="font-size:12px;font-weight:normal;color:#555;fill:#555;" y="14">12h</text></g><g class="highcharts-button highcharts-button-normal" style="cursor:pointer;" states="[object Object]" transform="translate(139,0)"><rect fill="#e6e6e6" class=" highcharts-button-box" x="0" y="0" width="34" height="22" rx="0" ry="0"></rect><text x="11.5234375" style="font-size:12px;font-weight:normal;color:#555;fill:#555;" y="14">1d</text></g><g class="highcharts-button highcharts-button-normal" style="cursor:pointer;" states="[object Object]" transform="translate(175,0)"><rect fill="#e6e6e6" class=" highcharts-button-box" x="0" y="0" width="34" height="22" rx="0" ry="0"></rect><text x="10.46875" style="font-size:12px;font-weight:normal;color:#555;fill:#555;" y="14">1w</text></g><g class="highcharts-button highcharts-button-normal" style="cursor:pointer;" states="[object Object]" transform="translate(211,0)"><rect fill="#e6e6e6" class=" highcharts-button-box" x="0" y="0" width="34" height="22" rx="0" ry="0"></rect><text x="10.125" style="font-size:12px;font-weight:normal;color:#555;fill:#555;" y="14">1m</text></g><g class="highcharts-button highcharts-button-normal" style="cursor:pointer;" states="[object Object]" transform="translate(247,0)"><rect fill="#e6e6e6" class=" highcharts-button-box" x="0" y="0" width="34" height="22" rx="0" ry="0"></rect><text x="10.125" style="font-size:12px;font-weight:normal;color:#555;fill:#555;" y="14">3m</text></g><g class="highcharts-button highcharts-button-normal" style="cursor:pointer;" states="[object Object]" transform="translate(283,0)"><rect fill="#e6e6e6" class=" highcharts-button-box" x="0" y="0" width="34" height="22" rx="0" ry="0"></rect><text x="11.96875" style="font-size:12px;font-weight:normal;color:#555;fill:#555;" y="14">1y</text></g><g class="highcharts-button highcharts-button-normal" style="cursor:pointer;" states="[object Object]" transform="translate(319,0)"><rect fill="#e6e6e6" class=" highcharts-button-box" x="0" y="0" width="34" height="22" rx="0" ry="0"></rect><text x="10.359375" style="font-size:12px;font-weight:normal;color:#555;fill:#555;" y="14">All</text></g></g><g class="highcharts-input-group" transform="translate(483,10)"><g class="highcharts-label highcharts-range-label" transform="translate(0,0)" style="margin-top:-10px;fill:#8a8a8a;"><text x="2" y="14" style="font-size:13px;font-family:arial;color:#8a8a8a;fill:#8a8a8a;"></text></g><g class="highcharts-label highcharts-range-input" transform="translate(9,0)"><rect fill="none" class="highcharts-label-box" x="0.5" y="0.5" width="94" height="21" stroke="#d8d8d8" stroke-width="1"></rect><text x="14.1484375" y="14" style="font-size:12px;font-family:arial;color:#8a8a8a;fill:#8a8a8a;"><tspan>Jul 18, 2010</tspan></text></g><g class="highcharts-label highcharts-range-label" transform="translate(113,0)" style="margin-top:-10px;fill:#8a8a8a;"><text x="2" y="14" style="font-size:13px;font-family:arial;color:#8a8a8a;fill:#8a8a8a;">to</text></g><g class="highcharts-label highcharts-range-input" transform="translate(133,0)"><rect fill="none" class="highcharts-label-box" x="0.5" y="0.5" width="94" height="21" stroke="#d8d8d8" stroke-width="1"></rect><text x="11.1484375" y="14" style="font-size:12px;font-family:arial;color:#8a8a8a;fill:#8a8a8a;"><tspan>Dec 10, 2017</tspan></text></g></g><image preserveAspectRatio="none" x="640" y="271" width="150" height="29" xmlns:xlink="http://www.w3.org/1999/xlink" xlink:href="https://www.coindesk.com/wp-content/themes/coindesk2/images/bpi-chart-branding.png"></image><g class="highcharts-grid highcharts-xaxis-grid "><path fill="none" class="highcharts-grid-line" d="M 204.5 45 L 204.5 366" opacity="1"></path><path fill="none" class="highcharts-grid-line" d="M 401.5 45 L 401.5 366" opacity="1"></path><path fill="none" class="highcharts-grid-line" d="M 598.5 45 L 598.5 366" opacity="1"></path></g><g class="highcharts-grid highcharts-yaxis-grid "><path fill="none" stroke="#e8e8e8" stroke-width="1" class="highcharts-grid-line" d="M 62 366.5 L 790 366.5" opacity="1"></path><path fill="none" stroke="#e8e8e8" stroke-width="1" class="highcharts-grid-line" d="M 62 302.5 L 790 302.5" opacity="1"></path><path fill="none" stroke="#e8e8e8" stroke-width="1" class="highcharts-grid-line" d="M 62 238.5 L 790 238.5" opacity="1"></path><path fill="none" stroke="#e8e8e8" stroke-width="1" class="highcharts-grid-line" d="M 62 173.5 L 790 173.5" opacity="1"></path><path fill="none" stroke="#e8e8e8" stroke-width="1" class="highcharts-grid-line" d="M 62 109.5 L 790 109.5" opacity="1"></path><path fill="none" stroke="#e8e8e8" stroke-width="1" class="highcharts-grid-line" d="M 62 44.5 L 790 44.5" opacity="1"></path></g><rect fill="none" class="highcharts-plot-border" x="62" y="45" width="728" height="321"></rect><g class="highcharts-axis highcharts-xaxis "><path fill="none" class="highcharts-tick" stroke="#ccd6eb" stroke-width="1" d="M 204.5 366 L 204.5 376" opacity="1"></path><path fill="none" class="highcharts-tick" stroke="#ccd6eb" stroke-width="1" d="M 401.5 366 L 401.5 376" opacity="1"></path><path fill="none" class="highcharts-tick" stroke="#ccd6eb" stroke-width="1" d="M 598.5 366 L 598.5 376" opacity="1"></path><path fill="none" class="highcharts-axis-line" stroke="#fff" stroke-width="1" d="M 62 366.5 L 790 366.5"></path></g><g class="highcharts-axis highcharts-yaxis "><path fill="none" class="highcharts-axis-line" d="M 62 45 L 62 366"></path></g><g class="highcharts-series-group"><g class="highcharts-series highcharts-series-0 highcharts-line-series highcharts-color-undefined " transform="translate(62,45) scale(1 1)" clip-path="url(#highcharts-qgs033g-44)"><path fill="none" d="M 0.26943005181347 256.7991929142857 L 2.1554404145078 256.7991929142857 L 4.0414507772021 256.7992296 L 5.9274611398964 256.79911954285717 L 7.8134715025907 256.7991012 L 9.699481865285 256.7992296 L 11.585492227979 256.7992296 L 13.471502590674 256.7992296 L 15.357512953368 256.7992296 L 17.243523316062 256.7992296 L 19.129533678756 256.7992296 L 21.015544041451 256.7990278285714 L 22.901554404145 256.79875268571425 L 24.787564766839 256.7986609714286 L 26.673575129534 256.7977621714286 L 28.559585492228 256.7966982857143 L 30.445595854922 256.79680834285716 L 32.331606217617 256.7966432571428 L 34.217616580311 256.7964048 L 36.103626943005 256.79713851428573 L 37.989637305699 256.79721188571426 L 39.875647668394 256.79690005714286 L 41.761658031088 256.7967533142857 L 43.647668393782 256.79625805714284 L 45.533678756477 256.79605628571426 L 47.419689119171 256.7954509714286 L 49.305699481865 256.7951208 L 51.19170984456 256.79442377142857 L 53.077720207254 256.7903516571429 L 54.963730569948 256.78701325714286 L 56.849740932642 256.78734342857143 L 58.735751295337 256.78833394285715 L 60.621761658031 256.78831560000003 L 62.507772020725 256.7885724 L 64.39378238342 256.78941617142857 L 66.279792746114 256.7892694285714 L 68.165803108808 256.78992977142855 L 70.051813471503 256.7906451428571 L 71.937823834197 256.7877102857143 L 73.823834196891 256.782666 L 75.709844559585 256.7690556 L 77.59585492228 256.7554085142857 L 79.481865284974 256.7196582857143 L 81.367875647668 256.7132382857143 L 83.253886010363 256.6954457142857 L 85.139896373057 256.6393349142857 L 87.025906735751 256.5099260571428 L 88.911917098446 256.5694486285714 L 90.79792746114 256.5771159428571 L 92.683937823834 256.59294582857143 L 94.569948186528 256.6167181714286 L 96.455958549223 256.6223494285714 L 98.341968911917 256.6239269142857 L 100.22797927461 256.6243854857143 L 102.11398963731 256.67270057142855 L 104 256.6759656 L 105.88601036269 256.65637542857144 L 107.77202072539 256.6749384 L 109.65803108808 256.69091502857145 L 111.54404145078 256.7195665714286 L 113.43005181347 256.7318929714286 L 115.31606217617 256.72853622857144 L 117.20207253886 256.7366437714286 L 119.08808290155 256.7413762285714 L 120.97409326425 256.7493370285714 L 122.86010362694 256.76606571428573 L 124.74611398964 256.7611865142857 L 126.63212435233 256.75993919999996 L 128.51813471503 256.7615900571428 L 130.40414507772 256.77099994285715 L 132.29015544041 256.7691106285714 L 134.17616580311 256.7631858857143 L 136.0621761658 256.76120485714284 L 137.9481865285 256.7590587428571 L 139.83419689119 256.74981394285714 L 141.72020725389 256.74370577142855 L 143.60621761658 256.7206854857143 L 145.49222797927 256.714614 L 147.37823834197 256.72013519999996 L 149.26424870466 256.7265552 L 151.15025906736 256.7253996 L 153.03626943005 256.72738062857144 L 154.92227979275 256.7425134857143 L 156.80829015544 256.73987211428573 L 158.69430051813 256.7381112 L 160.58031088083 256.7368272 L 162.46632124352 256.73266337142854 L 164.35233160622 256.73954194285716 L 166.23834196891 256.73831297142857 L 168.12435233161 256.73730411428573 L 170.0103626943 256.73684554285717 L 171.89637305699 256.7340024 L 173.78238341969 256.7352864 L 175.66839378238 256.735158 L 177.55440414508 256.73609348571426 L 179.44041450777 256.7348094857143 L 181.32642487047 256.7342408571428 L 183.21243523316 256.7333604 L 185.09844559585 256.72952674285716 L 186.98445595855 256.7225748 L 188.87046632124 256.7165583428571 L 190.75647668394 256.7157145714286 L 192.64248704663 256.7145222857143 L 194.52849740933 256.7046905142857 L 196.41450777202 256.6879985142857 L 198.30051813472 256.68764999999996 L 200.18652849741 256.6691237142857 L 202.0725388601 256.6558251428571 L 203.9585492228 256.6492767428571 L 205.84455958549 256.66857342857145 L 207.73056994819 256.6644096 L 209.61658031088 256.66031914285713 L 211.50259067358 256.6522482857143 L 213.38860103627 256.64263662857144 L 215.27461139896 256.6421964 L 217.16062176166 256.6386378857143 L 219.04663212435 256.6469838857143 L 220.93264248705 256.6485797142857 L 222.81865284974 256.65876000000003 L 224.70466321244 256.66211674285717 L 226.59067357513 256.6604842285714 L 228.47668393782 256.65454114285717 L 230.36269430052 256.6441774285714 L 232.24870466321 256.6406556 L 234.13471502591 256.6292646857143 L 236.0207253886 256.6261464 L 237.9067357513 256.6278522857143 L 239.79274611399 256.6277789142857 L 241.67875647668 256.62779725714284 L 243.56476683938 256.6207169142857 L 245.45077720207 256.6059509142857 L 247.33678756477 256.5770242285714 L 249.22279792746 256.54488754285717 L 251.10880829016 256.51634605714287 L 252.99481865285 256.46548131428574 L 254.88082901554 256.4226874285714 L 256.76683937824 256.37989354285713 L 258.65284974093 256.25607925714286 L 260.53886010363 256.1981158285714 L 262.42487046632 255.97128805714286 L 264.31088082902 255.69407245714285 L 266.19689119171 255.08246657142857 L 268.0829015544 254.95214057142857 L 269.9689119171 255.48457868571427 L 271.85492227979 255.0278598857143 L 273.74093264249 255.27233348571428 L 275.62694300518 255.33989022857145 L 277.51295336788 255.2756718857143 L 279.39896373057 255.1608822857143 L 281.28497409326 255.14833577142858 L 283.17098445596 255.3282792 L 285.05699481865 255.46504354285713 L 286.94300518135 255.41614148571426 L 288.82901554404 255.51906325714285 L 290.71502590674 255.8231694857143 L 292.60103626943 255.70909525714285 L 294.48704663212 255.66499902857143 L 296.37305699482 255.65956954285713 L 298.25906735751 255.56288434285713 L 300.14507772021 255.57735685714283 L 302.0310880829 255.54312908571427 L 303.9170984456 255.4123445142857 L 305.80310880829 255.2486712 L 307.68911917098 255.24450737142857 L 309.57512953368 255.20809680000002 L 311.46113989637 255.20470337142856 L 313.34715025907 255.21317777142855 L 315.23316062176 255.27877182857142 L 317.11917098446 255.18298542857144 L 319.00518134715 254.92115948571427 L 320.89119170984 254.44932617142857 L 322.77720207254 254.25799182857142 L 324.66321243523 253.18042234285713 L 326.54922279793 251.66354142857142 L 328.43523316062 248.06823137142857 L 330.32124352332 244.2239170285714 L 332.20725388601 244.6566617142857 L 334.0932642487 245.2583074285714 L 335.9792746114 248.6068877142857 L 337.86528497409 247.59991988571429 L 339.75129533679 246.30816085714287 L 341.63730569948 245.4794489142857 L 343.52331606218 245.82633068571428 L 345.40932642487 245.73786308571428 L 347.29533678756 246.0006245142857 L 349.18134715026 246.9758958857143 L 351.06735751295 248.52984771428572 L 352.95336787565 249.11250857142858 L 354.83937823834 249.64300234285713 L 356.72538860104 248.5099824 L 358.61139896373 248.70083982857142 L 360.49740932642 249.23026971428573 L 362.38341968912 250.04383045714286 L 364.26943005181 250.9372193142857 L 366.15544041451 251.3826389142857 L 368.0414507772 250.41960222857142 L 369.9274611399 250.7283125142857 L 371.81347150259 251.1117149142857 L 373.69948186528 251.1751812 L 375.58549222798 251.11721777142856 L 377.47150259067 250.26972274285714 L 379.35751295337 249.1690596 L 381.24352331606 248.4186533142857 L 383.12953367876 248.97502885714283 L 385.01554404145 249.14924931428573 L 386.90155440415 249.28770120000001 L 388.78756476684 248.63746525714285 L 390.67357512953 248.7894725142857 L 392.55958549223 248.81911457142857 L 394.44559585492 249.0198954857143 L 396.33160621762 249.31521548571428 L 398.21761658031 249.26405725714284 L 400.10362694301 250.00573234285713 L 401.9896373057 250.38874954285714 L 403.87564766839 250.34287405714286 L 405.76165803109 250.64542114285715 L 407.64766839378 250.7043017142857 L 409.53367875648 251.2846697142857 L 411.41968911917 251.58723514285714 L 413.30569948187 252.1849188 L 415.19170984456 252.26344457142858 L 417.07772020725 251.81995097142857 L 418.96373056995 252.12343354285713 L 420.84974093264 252.4638402857143 L 422.73575129534 252.422844 L 424.62176165803 251.77629497142857 L 426.50777202073 252.1055309142857 L 428.39378238342 252.00009617142857 L 430.27979274611 251.97835988571427 L 432.16580310881 252.29956165714285 L 434.0518134715 252.64182102857143 L 435.9378238342 252.64655348571426 L 437.82383419689 252.92232 L 439.70984455959 253.19573862857143 L 441.59585492228 254.0511761142857 L 443.48186528497 253.83108017142857 L 445.36787564767 253.7377884 L 447.25388601036 253.90058125714285 L 449.13989637306 253.84830411428572 L 451.02590673575 253.72432474285714 L 452.91191709845 253.6542550285714 L 454.79792746114 253.27420937142858 L 456.68393782383 253.0952748 L 458.56994818653 253.35482622857143 L 460.45595854922 253.59731879999998 L 462.34196891192 253.57961794285714 L 464.22797927461 253.67819245714287 L 466.11398963731 253.93829417142857 L 468 253.85587971428572 L 469.88601036269 253.82135845714285 L 471.77202072539 253.7428877142857 L 473.65803108808 253.74679474285716 L 475.54404145078 253.7640737142857 L 477.43005181347 253.77368537142857 L 479.31606217617 253.91432005714285 L 481.20207253886 253.83992142857142 L 483.08808290155 253.64673445714286 L 484.97409326425 253.65453017142858 L 486.86010362694 253.46536028571427 L 488.74611398964 253.21074308571428 L 490.63212435233 253.19711434285713 L 492.51813471503 253.18003714285715 L 494.40414507772 253.11636908571427 L 496.29015544041 253.26298354285714 L 498.17616580311 253.41220268571428 L 500.0621761658 253.8186804 L 501.9481865285 253.92048325714285 L 503.83419689119 253.83359314285713 L 505.72020725389 253.74466697142856 L 507.60621761658 253.83474874285713 L 509.49222797927 253.82245902857142 L 511.37823834197 253.74598765714285 L 513.26424870466 253.6630962857143 L 515.15025906736 253.49834074285712 L 517.03626943005 253.27896017142857 L 518.92227979275 252.83515474285713 L 520.80829015544 251.86659685714284 L 522.69430051813 252.4744241142857 L 524.58031088083 252.5772174857143 L 526.46632124352 252.37313485714287 L 528.35233160622 252.02869268571428 L 530.23834196891 251.35101582857143 L 532.12435233161 250.94996759999998 L 534.0103626943 251.17608 L 535.89637305699 251.2815881142857 L 537.78238341969 251.10463457142856 L 539.66839378238 251.53620531428572 L 541.55440414508 251.73219874285712 L 543.44041450777 251.88710417142858 L 545.32642487047 251.9617229142857 L 547.21243523316 251.87650200000002 L 549.09844559585 251.40743845714286 L 550.98445595855 251.29206188571428 L 552.87046632124 251.4408041142857 L 554.75647668394 251.4882204 L 556.64248704663 251.49436525714285 L 558.52849740933 251.44777440000001 L 560.41450777202 251.4397769142857 L 562.30051813472 251.40244919999998 L 564.18652849741 251.32067674285713 L 566.0725388601 251.07893622857142 L 567.9585492228 250.9598177142857 L 569.84455958549 250.98615805714286 L 571.73056994819 250.95093977142858 L 573.61658031088 251.07497417142855 L 575.50259067358 250.71954462857144 L 577.38860103627 249.72519668571428 L 579.27461139896 249.11582862857142 L 581.16062176166 247.4021472 L 583.04663212435 248.39356028571427 L 584.93264248705 248.25927222857143 L 586.81865284974 248.30556959999998 L 588.70466321244 248.2982508 L 590.59067357513 248.27893577142856 L 592.47668393782 248.44517708571428 L 594.36269430052 249.3529284 L 596.24870466321 249.2843077714286 L 598.13471502591 249.42114548571428 L 600.0207253886 249.38928394285716 L 601.9067357513 249.32743182857143 L 603.79274611399 248.9003550857143 L 605.67875647668 249.00982525714284 L 607.56476683938 249.09405565714286 L 609.45077720207 248.99913137142858 L 611.33678756477 248.92871314285713 L 613.22279792746 248.6512590857143 L 615.10880829016 248.61670114285715 L 616.99481865285 248.06973548571426 L 618.88082901554 247.6734197142857 L 620.76683937824 247.68242605714283 L 622.65284974093 247.3997442857143 L 624.53886010363 247.33057337142856 L 626.42487046632 247.14870394285714 L 628.31088082902 246.9821508 L 630.19689119171 246.77874685714286 L 632.0829015544 245.81950714285713 L 633.9689119171 244.4961984 L 635.85492227979 244.14542794285714 L 637.74093264249 246.06919011428573 L 639.62694300518 245.32848719999998 L 641.51295336788 245.1331541142857 L 643.39896373057 244.05391542857143 L 645.28497409326 243.73432782857142 L 647.17098445596 243.5680865142857 L 649.05699481865 242.08913862857145 L 650.94300518135 240.81922594285714 L 652.82901554404 241.42180714285712 L 654.71502590674 242.16131777142857 L 656.60103626943 243.79557462857144 L 658.48704663212 243.16997314285715 L 660.37305699482 241.74992417142857 L 662.25906735751 241.42488874285715 L 664.14507772021 240.92721034285714 L 666.0310880829 240.06959005714285 L 667.9170984456 237.59620251428572 L 669.80310880829 234.56884234285712 L 671.68911917098 232.62316045714286 L 673.57512953368 227.77118125714287 L 675.46113989637 225.8090458285714 L 677.34715025907 220.19224285714284 L 679.23316062176 223.52387434285714 L 681.11917098446 222.26914954285715 L 683.00518134715 224.30634394285715 L 684.89119170984 223.63361965714284 L 686.77720207254 228.08117554285712 L 688.66321243523 223.7100726857143 L 690.54922279793 222.15125999999998 L 692.43523316062 219.03609257142858 L 694.32124352332 210.1790422285714 L 696.20725388601 202.12797702857142 L 698.0932642487 201.8877406285714 L 699.9792746114 196.80093617142853 L 701.86528497409 200.29070142857142 L 703.75129533679 208.23546977142857 L 705.63730569948 208.23257159999997 L 707.52331606218 203.3697334285714 L 709.40932642487 200.52945205714283 L 711.29533678756 189.0327178285714 L 713.18134715026 182.32156165714287 L 715.06735751295 182.18635645714286 L 716.95336787565 168.23969519999997 L 718.83937823834 169.7682605142857 L 720.72538860104 161.89372697142855 L 722.61139896373 148.83586885714286 L 724.49740932642 124.15247297142855 L 726.38341968912 73.5779324571428 L 728.26943005181 43.1800212" class="highcharts-graph" stroke="#333333" stroke-width="2" stroke-linejoin="round" stroke-linecap="round"></path><path fill="none" d="M -9.73056994818653 256.7991929142857 L 0.26943005181347 256.7991929142857 L 2.1554404145078 256.7991929142857 L 4.0414507772021 256.7992296 L 5.9274611398964 256.79911954285717 L 7.8134715025907 256.7991012 L 9.699481865285 256.7992296 L 11.585492227979 256.7992296 L 13.471502590674 256.7992296 L 15.357512953368 256.7992296 L 17.243523316062 256.7992296 L 19.129533678756 256.7992296 L 21.015544041451 256.7990278285714 L 22.901554404145 256.79875268571425 L 24.787564766839 256.7986609714286 L 26.673575129534 256.7977621714286 L 28.559585492228 256.7966982857143 L 30.445595854922 256.79680834285716 L 32.331606217617 256.7966432571428 L 34.217616580311 256.7964048 L 36.103626943005 256.79713851428573 L 37.989637305699 256.79721188571426 L 39.875647668394 256.79690005714286 L 41.761658031088 256.7967533142857 L 43.647668393782 256.79625805714284 L 45.533678756477 256.79605628571426 L 47.419689119171 256.7954509714286 L 49.305699481865 256.7951208 L 51.19170984456 256.79442377142857 L 53.077720207254 256.7903516571429 L 54.963730569948 256.78701325714286 L 56.849740932642 256.78734342857143 L 58.735751295337 256.78833394285715 L 60.621761658031 256.78831560000003 L 62.507772020725 256.7885724 L 64.39378238342 256.78941617142857 L 66.279792746114 256.7892694285714 L 68.165803108808 256.78992977142855 L 70.051813471503 256.7906451428571 L 71.937823834197 256.7877102857143 L 73.823834196891 256.782666 L 75.709844559585 256.7690556 L 77.59585492228 256.7554085142857 L 79.481865284974 256.7196582857143 L 81.367875647668 256.7132382857143 L 83.253886010363 256.6954457142857 L 85.139896373057 256.6393349142857 L 87.025906735751 256.5099260571428 L 88.911917098446 256.5694486285714 L 90.79792746114 256.5771159428571 L 92.683937823834 256.59294582857143 L 94.569948186528 256.6167181714286 L 96.455958549223 256.6223494285714 L 98.341968911917 256.6239269142857 L 100.22797927461 256.6243854857143 L 102.11398963731 256.67270057142855 L 104 256.6759656 L 105.88601036269 256.65637542857144 L 107.77202072539 256.6749384 L 109.65803108808 256.69091502857145 L 111.54404145078 256.7195665714286 L 113.43005181347 256.7318929714286 L 115.31606217617 256.72853622857144 L 117.20207253886 256.7366437714286 L 119.08808290155 256.7413762285714 L 120.97409326425 256.7493370285714 L 122.86010362694 256.76606571428573 L 124.74611398964 256.7611865142857 L 126.63212435233 256.75993919999996 L 128.51813471503 256.7615900571428 L 130.40414507772 256.77099994285715 L 132.29015544041 256.7691106285714 L 134.17616580311 256.7631858857143 L 136.0621761658 256.76120485714284 L 137.9481865285 256.7590587428571 L 139.83419689119 256.74981394285714 L 141.72020725389 256.74370577142855 L 143.60621761658 256.7206854857143 L 145.49222797927 256.714614 L 147.37823834197 256.72013519999996 L 149.26424870466 256.7265552 L 151.15025906736 256.7253996 L 153.03626943005 256.72738062857144 L 154.92227979275 256.7425134857143 L 156.80829015544 256.73987211428573 L 158.69430051813 256.7381112 L 160.58031088083 256.7368272 L 162.46632124352 256.73266337142854 L 164.35233160622 256.73954194285716 L 166.23834196891 256.73831297142857 L 168.12435233161 256.73730411428573 L 170.0103626943 256.73684554285717 L 171.89637305699 256.7340024 L 173.78238341969 256.7352864 L 175.66839378238 256.735158 L 177.55440414508 256.73609348571426 L 179.44041450777 256.7348094857143 L 181.32642487047 256.7342408571428 L 183.21243523316 256.7333604 L 185.09844559585 256.72952674285716 L 186.98445595855 256.7225748 L 188.87046632124 256.7165583428571 L 190.75647668394 256.7157145714286 L 192.64248704663 256.7145222857143 L 194.52849740933 256.7046905142857 L 196.41450777202 256.6879985142857 L 198.30051813472 256.68764999999996 L 200.18652849741 256.6691237142857 L 202.0725388601 256.6558251428571 L 203.9585492228 256.6492767428571 L 205.84455958549 256.66857342857145 L 207.73056994819 256.6644096 L 209.61658031088 256.66031914285713 L 211.50259067358 256.6522482857143 L 213.38860103627 256.64263662857144 L 215.27461139896 256.6421964 L 217.16062176166 256.6386378857143 L 219.04663212435 256.6469838857143 L 220.93264248705 256.6485797142857 L 222.81865284974 256.65876000000003 L 224.70466321244 256.66211674285717 L 226.59067357513 256.6604842285714 L 228.47668393782 256.65454114285717 L 230.36269430052 256.6441774285714 L 232.24870466321 256.6406556 L 234.13471502591 256.6292646857143 L 236.0207253886 256.6261464 L 237.9067357513 256.6278522857143 L 239.79274611399 256.6277789142857 L 241.67875647668 256.62779725714284 L 243.56476683938 256.6207169142857 L 245.45077720207 256.6059509142857 L 247.33678756477 256.5770242285714 L 249.22279792746 256.54488754285717 L 251.10880829016 256.51634605714287 L 252.99481865285 256.46548131428574 L 254.88082901554 256.4226874285714 L 256.76683937824 256.37989354285713 L 258.65284974093 256.25607925714286 L 260.53886010363 256.1981158285714 L 262.42487046632 255.97128805714286 L 264.31088082902 255.69407245714285 L 266.19689119171 255.08246657142857 L 268.0829015544 254.95214057142857 L 269.9689119171 255.48457868571427 L 271.85492227979 255.0278598857143 L 273.74093264249 255.27233348571428 L 275.62694300518 255.33989022857145 L 277.51295336788 255.2756718857143 L 279.39896373057 255.1608822857143 L 281.28497409326 255.14833577142858 L 283.17098445596 255.3282792 L 285.05699481865 255.46504354285713 L 286.94300518135 255.41614148571426 L 288.82901554404 255.51906325714285 L 290.71502590674 255.8231694857143 L 292.60103626943 255.70909525714285 L 294.48704663212 255.66499902857143 L 296.37305699482 255.65956954285713 L 298.25906735751 255.56288434285713 L 300.14507772021 255.57735685714283 L 302.0310880829 255.54312908571427 L 303.9170984456 255.4123445142857 L 305.80310880829 255.2486712 L 307.68911917098 255.24450737142857 L 309.57512953368 255.20809680000002 L 311.46113989637 255.20470337142856 L 313.34715025907 255.21317777142855 L 315.23316062176 255.27877182857142 L 317.11917098446 255.18298542857144 L 319.00518134715 254.92115948571427 L 320.89119170984 254.44932617142857 L 322.77720207254 254.25799182857142 L 324.66321243523 253.18042234285713 L 326.54922279793 251.66354142857142 L 328.43523316062 248.06823137142857 L 330.32124352332 244.2239170285714 L 332.20725388601 244.6566617142857 L 334.0932642487 245.2583074285714 L 335.9792746114 248.6068877142857 L 337.86528497409 247.59991988571429 L 339.75129533679 246.30816085714287 L 341.63730569948 245.4794489142857 L 343.52331606218 245.82633068571428 L 345.40932642487 245.73786308571428 L 347.29533678756 246.0006245142857 L 349.18134715026 246.9758958857143 L 351.06735751295 248.52984771428572 L 352.95336787565 249.11250857142858 L 354.83937823834 249.64300234285713 L 356.72538860104 248.5099824 L 358.61139896373 248.70083982857142 L 360.49740932642 249.23026971428573 L 362.38341968912 250.04383045714286 L 364.26943005181 250.9372193142857 L 366.15544041451 251.3826389142857 L 368.0414507772 250.41960222857142 L 369.9274611399 250.7283125142857 L 371.81347150259 251.1117149142857 L 373.69948186528 251.1751812 L 375.58549222798 251.11721777142856 L 377.47150259067 250.26972274285714 L 379.35751295337 249.1690596 L 381.24352331606 248.4186533142857 L 383.12953367876 248.97502885714283 L 385.01554404145 249.14924931428573 L 386.90155440415 249.28770120000001 L 388.78756476684 248.63746525714285 L 390.67357512953 248.7894725142857 L 392.55958549223 248.81911457142857 L 394.44559585492 249.0198954857143 L 396.33160621762 249.31521548571428 L 398.21761658031 249.26405725714284 L 400.10362694301 250.00573234285713 L 401.9896373057 250.38874954285714 L 403.87564766839 250.34287405714286 L 405.76165803109 250.64542114285715 L 407.64766839378 250.7043017142857 L 409.53367875648 251.2846697142857 L 411.41968911917 251.58723514285714 L 413.30569948187 252.1849188 L 415.19170984456 252.26344457142858 L 417.07772020725 251.81995097142857 L 418.96373056995 252.12343354285713 L 420.84974093264 252.4638402857143 L 422.73575129534 252.422844 L 424.62176165803 251.77629497142857 L 426.50777202073 252.1055309142857 L 428.39378238342 252.00009617142857 L 430.27979274611 251.97835988571427 L 432.16580310881 252.29956165714285 L 434.0518134715 252.64182102857143 L 435.9378238342 252.64655348571426 L 437.82383419689 252.92232 L 439.70984455959 253.19573862857143 L 441.59585492228 254.0511761142857 L 443.48186528497 253.83108017142857 L 445.36787564767 253.7377884 L 447.25388601036 253.90058125714285 L 449.13989637306 253.84830411428572 L 451.02590673575 253.72432474285714 L 452.91191709845 253.6542550285714 L 454.79792746114 253.27420937142858 L 456.68393782383 253.0952748 L 458.56994818653 253.35482622857143 L 460.45595854922 253.59731879999998 L 462.34196891192 253.57961794285714 L 464.22797927461 253.67819245714287 L 466.11398963731 253.93829417142857 L 468 253.85587971428572 L 469.88601036269 253.82135845714285 L 471.77202072539 253.7428877142857 L 473.65803108808 253.74679474285716 L 475.54404145078 253.7640737142857 L 477.43005181347 253.77368537142857 L 479.31606217617 253.91432005714285 L 481.20207253886 253.83992142857142 L 483.08808290155 253.64673445714286 L 484.97409326425 253.65453017142858 L 486.86010362694 253.46536028571427 L 488.74611398964 253.21074308571428 L 490.63212435233 253.19711434285713 L 492.51813471503 253.18003714285715 L 494.40414507772 253.11636908571427 L 496.29015544041 253.26298354285714 L 498.17616580311 253.41220268571428 L 500.0621761658 253.8186804 L 501.9481865285 253.92048325714285 L 503.83419689119 253.83359314285713 L 505.72020725389 253.74466697142856 L 507.60621761658 253.83474874285713 L 509.49222797927 253.82245902857142 L 511.37823834197 253.74598765714285 L 513.26424870466 253.6630962857143 L 515.15025906736 253.49834074285712 L 517.03626943005 253.27896017142857 L 518.92227979275 252.83515474285713 L 520.80829015544 251.86659685714284 L 522.69430051813 252.4744241142857 L 524.58031088083 252.5772174857143 L 526.46632124352 252.37313485714287 L 528.35233160622 252.02869268571428 L 530.23834196891 251.35101582857143 L 532.12435233161 250.94996759999998 L 534.0103626943 251.17608 L 535.89637305699 251.2815881142857 L 537.78238341969 251.10463457142856 L 539.66839378238 251.53620531428572 L 541.55440414508 251.73219874285712 L 543.44041450777 251.88710417142858 L 545.32642487047 251.9617229142857 L 547.21243523316 251.87650200000002 L 549.09844559585 251.40743845714286 L 550.98445595855 251.29206188571428 L 552.87046632124 251.4408041142857 L 554.75647668394 251.4882204 L 556.64248704663 251.49436525714285 L 558.52849740933 251.44777440000001 L 560.41450777202 251.4397769142857 L 562.30051813472 251.40244919999998 L 564.18652849741 251.32067674285713 L 566.0725388601 251.07893622857142 L 567.9585492228 250.9598177142857 L 569.84455958549 250.98615805714286 L 571.73056994819 250.95093977142858 L 573.61658031088 251.07497417142855 L 575.50259067358 250.71954462857144 L 577.38860103627 249.72519668571428 L 579.27461139896 249.11582862857142 L 581.16062176166 247.4021472 L 583.04663212435 248.39356028571427 L 584.93264248705 248.25927222857143 L 586.81865284974 248.30556959999998 L 588.70466321244 248.2982508 L 590.59067357513 248.27893577142856 L 592.47668393782 248.44517708571428 L 594.36269430052 249.3529284 L 596.24870466321 249.2843077714286 L 598.13471502591 249.42114548571428 L 600.0207253886 249.38928394285716 L 601.9067357513 249.32743182857143 L 603.79274611399 248.9003550857143 L 605.67875647668 249.00982525714284 L 607.56476683938 249.09405565714286 L 609.45077720207 248.99913137142858 L 611.33678756477 248.92871314285713 L 613.22279792746 248.6512590857143 L 615.10880829016 248.61670114285715 L 616.99481865285 248.06973548571426 L 618.88082901554 247.6734197142857 L 620.76683937824 247.68242605714283 L 622.65284974093 247.3997442857143 L 624.53886010363 247.33057337142856 L 626.42487046632 247.14870394285714 L 628.31088082902 246.9821508 L 630.19689119171 246.77874685714286 L 632.0829015544 245.81950714285713 L 633.9689119171 244.4961984 L 635.85492227979 244.14542794285714 L 637.74093264249 246.06919011428573 L 639.62694300518 245.32848719999998 L 641.51295336788 245.1331541142857 L 643.39896373057 244.05391542857143 L 645.28497409326 243.73432782857142 L 647.17098445596 243.5680865142857 L 649.05699481865 242.08913862857145 L 650.94300518135 240.81922594285714 L 652.82901554404 241.42180714285712 L 654.71502590674 242.16131777142857 L 656.60103626943 243.79557462857144 L 658.48704663212 243.16997314285715 L 660.37305699482 241.74992417142857 L 662.25906735751 241.42488874285715 L 664.14507772021 240.92721034285714 L 666.0310880829 240.06959005714285 L 667.9170984456 237.59620251428572 L 669.80310880829 234.56884234285712 L 671.68911917098 232.62316045714286 L 673.57512953368 227.77118125714287 L 675.46113989637 225.8090458285714 L 677.34715025907 220.19224285714284 L 679.23316062176 223.52387434285714 L 681.11917098446 222.26914954285715 L 683.00518134715 224.30634394285715 L 684.89119170984 223.63361965714284 L 686.77720207254 228.08117554285712 L 688.66321243523 223.7100726857143 L 690.54922279793 222.15125999999998 L 692.43523316062 219.03609257142858 L 694.32124352332 210.1790422285714 L 696.20725388601 202.12797702857142 L 698.0932642487 201.8877406285714 L 699.9792746114 196.80093617142853 L 701.86528497409 200.29070142857142 L 703.75129533679 208.23546977142857 L 705.63730569948 208.23257159999997 L 707.52331606218 203.3697334285714 L 709.40932642487 200.52945205714283 L 711.29533678756 189.0327178285714 L 713.18134715026 182.32156165714287 L 715.06735751295 182.18635645714286 L 716.95336787565 168.23969519999997 L 718.83937823834 169.7682605142857 L 720.72538860104 161.89372697142855 L 722.61139896373 148.83586885714286 L 724.49740932642 124.15247297142855 L 726.38341968912 73.5779324571428 L 728.26943005181 43.1800212 L 738.26943005181 43.1800212" stroke-linejoin="round" visibility="visible" stroke="rgba(192,192,192,0.0001)" stroke-width="22" class="highcharts-tracker"></path></g><g class="highcharts-markers highcharts-series-0 highcharts-line-series highcharts-color-undefined highcharts-tracker" transform="translate(62,45) scale(1 1)" clip-path="none"></g><g class="highcharts-series highcharts-series-1 highcharts-flags-series highcharts-color-0 " transform="translate(62,45) scale(1 1)" clip-path="url(#highcharts-qgs033g-43)"></g><g class="highcharts-markers highcharts-series-1 highcharts-flags-series highcharts-color-0 highcharts-tracker" transform="translate(62,45) scale(1 1)"><g class="highcharts-label highcharts-point" transform="translate(231,291)"><path fill="#ffffff" class="highcharts-label-box" d="M 0.5 0.5 L 118.5 0.5 118.5 17.5 0.5 17.5 Z M 59.5 17.5 L 59.5 30" stroke="#333" stroke-width="1"></path><text x="3" style="font-size:11px;font-weight:bold;" y="14"><tspan>CoinDesk BPI in effect</tspan></text></g></g><g class="highcharts-series highcharts-series-2 highcharts-flags-series highcharts-color-0 " transform="translate(62,45) scale(1 1)" clip-path="url(#highcharts-qgs033g-43)"></g><g class="highcharts-markers highcharts-series-2 highcharts-flags-series highcharts-color-0 highcharts-tracker" transform="translate(62,45) scale(1 1)"><g class="highcharts-label highcharts-point" transform="translate(231,291)"><path fill="#ffffff" class="highcharts-label-box" d="M 0.5 0.5 L 118.5 0.5 118.5 17.5 0.5 17.5 Z M 59.5 17.5 L 59.5 30" stroke="#333" stroke-width="1"></path><text x="3" style="font-size:11px;font-weight:bold;" y="14"><tspan>CoinDesk BPI in effect</tspan></text></g></g><g class="highcharts-series highcharts-series-3 highcharts-flags-series highcharts-color-0 " transform="translate(62,45) scale(1 1)" clip-path="url(#highcharts-qgs033g-43)"></g><g class="highcharts-markers highcharts-series-3 highcharts-flags-series highcharts-color-0 highcharts-tracker" transform="translate(62,45) scale(1 1)"><g class="highcharts-label highcharts-point" transform="translate(231,291)"><path fill="#ffffff" class="highcharts-label-box" d="M 0.5 0.5 L 118.5 0.5 118.5 17.5 0.5 17.5 Z M 59.5 17.5 L 59.5 30" stroke="#333" stroke-width="1"></path><text x="3" style="font-size:11px;font-weight:bold;" y="14"><tspan>CoinDesk BPI in effect</tspan></text></g></g><g class="highcharts-series highcharts-series-4 highcharts-flags-series highcharts-color-0 " transform="translate(62,45) scale(1 1)" clip-path="url(#highcharts-qgs033g-43)"></g><g class="highcharts-markers highcharts-series-4 highcharts-flags-series highcharts-color-0 highcharts-tracker" transform="translate(62,45) scale(1 1)"><g class="highcharts-label highcharts-point" transform="translate(231,291)"><path fill="#ffffff" class="highcharts-label-box" d="M 0.5 0.5 L 118.5 0.5 118.5 17.5 0.5 17.5 Z M 59.5 17.5 L 59.5 30" stroke="#333" stroke-width="1"></path><text x="3" style="font-size:11px;font-weight:bold;" y="14"><tspan>CoinDesk BPI in effect</tspan></text></g></g><g class="highcharts-series highcharts-series-5 highcharts-flags-series highcharts-color-0 " transform="translate(62,45) scale(1 1)" clip-path="url(#highcharts-qgs033g-43)"></g><g class="highcharts-markers highcharts-series-5 highcharts-flags-series highcharts-color-0 highcharts-tracker" transform="translate(62,45) scale(1 1)"><g class="highcharts-label highcharts-point" transform="translate(231,291)"><path fill="#ffffff" class="highcharts-label-box" d="M 0.5 0.5 L 118.5 0.5 118.5 17.5 0.5 17.5 Z M 59.5 17.5 L 59.5 30" stroke="#333" stroke-width="1"></path><text x="3" style="font-size:11px;font-weight:bold;" y="14"><tspan>CoinDesk BPI in effect</tspan></text></g></g><g class="highcharts-series highcharts-series-6 highcharts-flags-series highcharts-color-0 " transform="translate(62,45) scale(1 1)" clip-path="url(#highcharts-qgs033g-43)"></g><g class="highcharts-markers highcharts-series-6 highcharts-flags-series highcharts-color-0 highcharts-tracker" transform="translate(62,45) scale(1 1)"><g class="highcharts-label highcharts-point" transform="translate(231,291)"><path fill="#ffffff" class="highcharts-label-box" d="M 0.5 0.5 L 118.5 0.5 118.5 17.5 0.5 17.5 Z M 59.5 17.5 L 59.5 30" stroke="#333" stroke-width="1"></path><text x="3" style="font-size:11px;font-weight:bold;" y="14"><tspan>CoinDesk BPI in effect</tspan></text></g></g><g class="highcharts-series highcharts-series-7 highcharts-flags-series highcharts-color-0 " transform="translate(62,45) scale(1 1)" clip-path="url(#highcharts-qgs033g-43)"></g><g class="highcharts-markers highcharts-series-7 highcharts-flags-series highcharts-color-0 highcharts-tracker" transform="translate(62,45) scale(1 1)"><g class="highcharts-label highcharts-point" transform="translate(231,291)"><path fill="#ffffff" class="highcharts-label-box" d="M 0.5 0.5 L 118.5 0.5 118.5 17.5 0.5 17.5 Z M 59.5 17.5 L 59.5 30" stroke="#333" stroke-width="1"></path><text x="3" style="font-size:11px;font-weight:bold;" y="14"><tspan>CoinDesk BPI in effect</tspan></text></g></g><g class="highcharts-series highcharts-series-8 highcharts-flags-series highcharts-color-0 " transform="translate(62,45) scale(1 1)" clip-path="url(#highcharts-qgs033g-43)"></g><g class="highcharts-markers highcharts-series-8 highcharts-flags-series highcharts-color-0 highcharts-tracker" transform="translate(62,45) scale(1 1)"><g class="highcharts-label highcharts-point" transform="translate(231,291)"><path fill="#ffffff" class="highcharts-label-box" d="M 0.5 0.5 L 118.5 0.5 118.5 17.5 0.5 17.5 Z M 59.5 17.5 L 59.5 30" stroke="#333" stroke-width="1"></path><text x="3" style="font-size:11px;font-weight:bold;" y="14"><tspan>CoinDesk BPI in effect</tspan></text></g></g><g class="highcharts-series highcharts-series-9 highcharts-flags-series highcharts-color-0 " transform="translate(62,45) scale(1 1)" clip-path="url(#highcharts-qgs033g-43)"></g><g class="highcharts-markers highcharts-series-9 highcharts-flags-series highcharts-color-0 highcharts-tracker" transform="translate(62,45) scale(1 1)"><g class="highcharts-label highcharts-point" transform="translate(231,291)"><path fill="#ffffff" class="highcharts-label-box" d="M 0.5 0.5 L 118.5 0.5 118.5 17.5 0.5 17.5 Z M 59.5 17.5 L 59.5 30" stroke="#333" stroke-width="1"></path><text x="3" style="font-size:11px;font-weight:bold;" y="14"><tspan>CoinDesk BPI in effect</tspan></text></g></g><g class="highcharts-series highcharts-series-10 highcharts-flags-series highcharts-color-0 " transform="translate(62,45) scale(1 1)" clip-path="url(#highcharts-qgs033g-43)"></g><g class="highcharts-markers highcharts-series-10 highcharts-flags-series highcharts-color-0 highcharts-tracker" transform="translate(62,45) scale(1 1)"><g class="highcharts-label highcharts-point" transform="translate(231,291)"><path fill="#ffffff" class="highcharts-label-box" d="M 0.5 0.5 L 118.5 0.5 118.5 17.5 0.5 17.5 Z M 59.5 17.5 L 59.5 30" stroke="#333" stroke-width="1"></path><text x="3" style="font-size:11px;font-weight:bold;" y="14"><tspan>CoinDesk BPI in effect</tspan></text></g></g></g><g class="highcharts-axis-labels highcharts-xaxis-labels "><text x="205.33678756476684" style="color:#8a8a8a;cursor:default;font-size:11px;fill:#8a8a8a;" text-anchor="middle" transform="translate(0,0)" y="385" opacity="1"><tspan>2012</tspan></text><text x="402.2901554404145" style="color:#8a8a8a;cursor:default;font-size:11px;fill:#8a8a8a;" text-anchor="middle" transform="translate(0,0)" y="385" opacity="1"><tspan>2014</tspan></text><text x="598.9740932642487" style="color:#8a8a8a;cursor:default;font-size:11px;fill:#8a8a8a;" text-anchor="middle" transform="translate(0,0)" y="385" opacity="1"><tspan>2016</tspan></text></g><g class="highcharts-axis-labels highcharts-yaxis-labels "><text x="0" style="color:#8a8a8a;cursor:default;font-size:11px;fill:#8a8a8a;" text-anchor="end" transform="translate(0,0)" y="-9999"><tspan>$-5000</tspan></text><text x="47" style="color:#8a8a8a;cursor:default;font-size:11px;fill:#8a8a8a;" text-anchor="end" transform="translate(0,0)" y="300" opacity="1"><tspan>$0</tspan></text><text x="47" style="color:#8a8a8a;cursor:default;font-size:11px;fill:#8a8a8a;" text-anchor="end" transform="translate(0,0)" y="236" opacity="1"><tspan>$5000</tspan></text><text x="47" style="color:#8a8a8a;cursor:default;font-size:11px;fill:#8a8a8a;" text-anchor="end" transform="translate(0,0)" y="171" opacity="1"><tspan>$10000</tspan></text><text x="47" style="color:#8a8a8a;cursor:default;font-size:11px;fill:#8a8a8a;" text-anchor="end" transform="translate(0,0)" y="107" opacity="1"><tspan>$15000</tspan></text><text x="0" style="color:#8a8a8a;cursor:default;font-size:11px;fill:#8a8a8a;" text-anchor="end" transform="translate(0,0)" y="-9999"><tspan>$20000</tspan></text></g></svg>